# File created by Blade
# Date/Time:  Tue Jan 27 19:23:26 2015
#---------------------------------------------------------
:version 1.10
:name HOM
:units
  mass 1.0
  length 1.000000
  angle deg
:documentation
     Acclaim Skeleton File
:root
   axis xyz
   order TX TY TZ RX RY RZ
   position 0.000000 0.000000 0.000000
   orientation 0 0 0
:bonedata
   begin
      id 1
      name Spine_dum
      direction 0.000000 1.000000 0.000000
      length 6.116652
      axis 0.0 0.0 0.0 xyz
   end
   begin
      id 2
      name LeftUpLeg_dum
      direction 1.000000 0.000000 0.000000
      length 4.711765
      axis 0.0 0.0 0.0 xyz
   end
   begin
      id 3
      name RightUpLeg_dum
      direction -1.000000 0.000000 0.000000
      length 4.711765
      axis 0.0 0.0 0.0 xyz
   end
   begin
      id 4
      name Spine
      direction 0.000000 1.000000 0.000000
      length 0.000000
      axis 0.0 0.0 0.0 xyz
      dof rx ry rz
   end
   begin
      id 5
      name Spine_dum1
      direction 0.000000 1.000000 0.000000
      length 15.225563
      axis 0.0 0.0 0.0 xyz
   end
   begin
      id 6
      name Spine_dum2
      direction 0.000000 1.000000 0.000000
      length 8.977654
      axis 0.0 0.0 0.0 xyz
   end
   begin
      id 7
      name Spine_dum3
      direction 0.000000 1.000000 0.000000
      length 8.977654
      axis 0.0 0.0 0.0 xyz
   end
   begin
      id 8
      name Head
      direction 0.000000 1.000000 0.000000
      length 4.527550
      axis 0.0 0.0 0.0 xyz
      dof rx ry rz
   end
   begin
      id 9
      name LeftShoulder
      direction 1.000000 0.000000 0.000000
      length 7.110130
      axis 0.0 0.0 -90.0 xyz
      dof rx ry rz
   end
   begin
      id 10
      name LeftArm
      direction 1.000000 0.000000 0.000000
      length 10.398341
      axis 0.0 0.0 -90.0 xyz
      dof rx ry rz
   end
   begin
      id 11
      name LeftForeArm
      direction 1.000000 0.000000 0.000000
      length 8.888997
      axis 0.0 0.0 -90.0 xyz
      dof ry rz rx
   end
   begin
      id 12
      name LeftHand
      direction 0.000000 0.000000 0.000000
      length 0.000000
      axis 0.0 0.0 -90.0 xyz
      dof rx ry rz
   end
   begin
      id 13
      name LeftHand_dum1
      direction 0.000000 0.000000 0.000000
      length 0.000000
      axis 0.0 0.0 -90.0 xyz
   end
   begin
      id 14
      name LeftHand_dum2
      direction 1.000000 0.000000 0.000000
      length 3.937000
      axis 0.0 0.0 -90.0 xyz
   end
   begin
      id 15
      name LeftHandThumb1
      direction 0.000000 0.000000 1.000000
      length 3.937000
      axis 0.0 0.0 -90.0 xyz
      dof rx rz ry
   end
   begin
      id 16
      name RightShoulder
      direction -1.000000 0.000000 0.000000
      length 7.110130
      axis 0.0 0.0 90.0 xyz
      dof rx ry rz
   end
   begin
      id 17
      name RightArm
      direction -1.000000 0.000000 0.000000
      length 10.398341
      axis 0.0 0.0 90.0 xyz
      dof rx ry rz
   end
   begin
      id 18
      name RightForeArm
      direction -1.000000 0.000000 0.000000
      length 8.888997
      axis 0.0 0.0 90.0 xyz
      dof ry rz rx
   end
   begin
      id 19
      name RightHand
      direction 0.000000 0.000000 0.000000
      length 0.000000
      axis 0.0 0.0 90.0 xyz
      dof rx ry rz
   end
   begin
      id 20
      name RightHand_dum1
      direction 0.000000 0.000000 0.000000
      length 0.000000
      axis 0.0 0.0 90.0 xyz
   end
   begin
      id 21
      name RightHand_dum2
      direction -1.000000 0.000000 0.000000
      length 3.937000
      axis 0.0 0.0 90.0 xyz
   end
   begin
      id 22
      name RightHandThumb1
      direction 0.000000 0.000000 1.000000
      length 3.937000
      axis 0.0 0.0 90.0 xyz
      dof rx rz ry
   end
   begin
      id 23
      name LeftUpLeg
      direction 0.000000 -1.000000 0.000000
      length 15.510451
      axis 0.0 0.0 0.0 xyz
      dof rx ry rz
   end
   begin
      id 24
      name LeftLeg
      direction 0.000000 -1.000000 0.000000
      length 14.858061
      axis 0.0 0.0 0.0 xyz
      dof rx ry rz
   end
   begin
      id 25
      name LeftFoot
      direction 0.000000 -0.258819 0.965926
      length 5.128852
      axis 15.0 0.0 0.0 xyz
      dof rx ry rz
   end
   begin
      id 26
      name LeftToeBase
      direction 0.000000 0.000000 1.000000
      length 2.952750
      axis 0.0 0.0 0.0 xyz
      dof rx ry rz
   end
   begin
      id 27
      name RightUpLeg
      direction 0.000000 -1.000000 0.000000
      length 15.510451
      axis 0.0 0.0 0.0 xyz
      dof rx ry rz
   end
   begin
      id 28
      name RightLeg
      direction 0.000000 -1.000000 0.000000
      length 14.858061
      axis 0.0 0.0 0.0 xyz
      dof rx ry rz
   end
   begin
      id 29
      name RightFoot
      direction 0.000000 -0.258819 0.965926
      length 5.128852
      axis 15.0 0.0 0.0 xyz
      dof rx ry rz
   end
   begin
      id 30
      name RightToeBase
      direction 0.000000 0.000000 1.000000
      length 2.952750
      axis 0.0 0.0 0.0 xyz
      dof rx ry rz
   end
:hierarchy
   begin
      root Spine_dum LeftUpLeg_dum RightUpLeg_dum
      Spine_dum Spine
      LeftUpLeg_dum LeftUpLeg
      RightUpLeg_dum RightUpLeg
      Spine Spine_dum1 Spine_dum2 Spine_dum3
      Spine_dum1 Head
      Spine_dum2 LeftShoulder
      Spine_dum3 RightShoulder
      LeftShoulder LeftArm
      LeftArm LeftForeArm
      LeftForeArm LeftHand
      LeftHand LeftHand_dum1 LeftHand_dum2
      LeftHand_dum1 LeftHandThumb1
      RightShoulder RightArm
      RightArm RightForeArm
      RightForeArm RightHand
      RightHand RightHand_dum1 RightHand_dum2
      RightHand_dum1 RightHandThumb1
      LeftUpLeg LeftLeg
      LeftLeg LeftFoot
      LeftFoot LeftToeBase
      RightUpLeg RightLeg
      RightLeg RightFoot
      RightFoot RightToeBase
   end

# File created by Blade
# Date/Time:  Tue Jan 27 19:23:16 2015
# Frame Rate: 120.000 fps
#------------------------------------------------------
:FULLY-SPECIFIED
:DEGREES
1
root 3.931114 32.355263 -0.007702 -3.081352 1.053703 0.577222
Spine 3.002660 4.022731 0.168305
Head 1.474315 -5.622302 2.133404
LeftShoulder -14.124385 -5.435443 41.963811
LeftArm 16.965081 -11.492534 -42.603731
LeftForeArm 20.999778 -0.000000 -10.007169
LeftHand 9.201090 -0.000000 -5.425876
LeftHandThumb1 -26.253704 0.000000 33.147579
RightShoulder -19.187318 -17.537389 -39.362303
RightArm 19.053402 15.835842 39.856478
RightForeArm -19.188402 -0.000000 6.593411
RightHand 16.389339 -0.000000 6.289677
RightHandThumb1 -24.326973 -0.000000 -32.862282
LeftUpLeg 9.137692 1.013310 -0.500068
LeftLeg 1.699179 -0.000000 -0.000000
LeftFoot -17.460455 13.544167 -23.265269
LeftToeBase 16.810687 -0.000000 -0.000000
RightUpLeg 7.941661 -8.477221 1.111918
RightLeg 0.492270 -0.000000 -0.000000
RightFoot -12.174735 -14.160140 13.429050
RightToeBase 10.930560 -0.000000 -0.000000
2
root 3.931912 32.354860 -0.009737 -3.087982 1.048876 0.589582
Spine 3.007107 4.029639 0.160011
Head 1.492357 -5.597514 2.103436
LeftShoulder -14.118460 -5.443746 41.960900
LeftArm 16.963828 -11.468420 -42.595327
LeftForeArm 20.985482 -0.000000 -10.008041
LeftHand 9.230761 -0.000000 -5.425195
LeftHandThumb1 -26.253704 0.000000 33.147579
RightShoulder -19.190298 -17.567902 -39.362465
RightArm 19.068169 15.846026 39.859056
RightForeArm -19.170576 0.000000 6.601419
RightHand 16.396373 -0.000000 6.282300
RightHandThumb1 -24.326973 -0.000000 -32.862282
LeftUpLeg 9.140698 1.012238 -0.511845
LeftLeg 1.690925 -0.000000 -0.000000
LeftFoot -17.509532 13.540140 -23.382910
LeftToeBase 17.026484 -0.000000 -0.000000
RightUpLeg 7.934978 -8.508632 1.089353
RightLeg 0.513747 -0.000000 -0.000000
RightFoot -12.181898 -14.111137 13.435141
RightToeBase 10.900291 -0.000000 -0.000000
3
root 3.932880 32.354580 -0.013074 -3.082448 1.047203 0.592517
Spine 3.005345 4.018014 0.161752
Head 1.491054 -5.574513 2.093618
LeftShoulder -14.147637 -5.418437 41.965624
LeftArm 16.993938 -11.493278 -42.621327
LeftForeArm 21.043764 -0.000000 -9.994362
LeftHand 9.220231 0.000000 -5.456147
LeftHandThumb1 -26.253704 0.000000 33.147579
RightShoulder -19.199653 -17.568745 -39.365796
RightArm 19.088499 15.873771 39.866764
RightForeArm -19.302356 -0.000000 6.602030
RightHand 16.538478 -0.000000 6.409428
RightHandThumb1 -24.326973 -0.000000 -32.862282
LeftUpLeg 9.120177 0.997146 -0.523701
LeftLeg 1.718073 -0.000000 -0.000000
LeftFoot -17.478684 13.574478 -23.269772
LeftToeBase 16.890557 -0.000000 -0.000000
RightUpLeg 7.922826 -8.509541 1.086520
RightLeg 0.513902 -0.000000 -0.000000
RightFoot -12.177200 -14.106003 13.438495
RightToeBase 10.868194 -0.000000 -0.000000
4
root 3.930857 32.354759 -0.013474 -3.097985 1.051774 0.592150
Spine 3.017377 4.016367 0.157238
Head 1.503690 -5.578665 2.081655
LeftShoulder -14.141545 -5.434281 41.976005
LeftArm 16.988124 -11.467743 -42.619797
LeftForeArm 21.039872 -0.000000 -9.998371
LeftHand 9.210862 0.000000 -5.454890
LeftHandThumb1 -26.253704 0.000000 33.147579
RightShoulder -19.204928 -17.568863 -39.363590
RightArm 19.082461 15.831064 39.850372
RightForeArm -19.318572 0.000000 6.624382
RightHand 16.549792 -0.000000 6.438431
RightHandThumb1 -24.326973 -0.000000 -32.862282
LeftUpLeg 9.135134 0.998033 -0.514531
LeftLeg 1.707892 -0.000000 -0.000000
LeftFoot -17.533227 13.544945 -23.407661
LeftToeBase 17.068630 -0.000000 -0.000000
RightUpLeg 7.937972 -8.517342 1.088493
RightLeg 0.512615 -0.000000 -0.000000
RightFoot -12.182697 -14.105389 13.449029
RightToeBase 10.932543 -0.000000 -0.000000
5
root 3.930760 32.354996 -0.017172 -3.091566 1.041785 0.591853
Spine 3.014238 4.042023 0.165672
Head 1.502888 -5.571364 2.051530
LeftShoulder -14.131331 -5.430500 41.961174
LeftArm 17.016871 -11.468925 -42.620385
LeftForeArm 21.060233 -0.000000 -10.016325
LeftHand 9.220586 -0.000000 -5.489735
LeftHandThumb1 -26.253704 0.000000 33.147579
RightShoulder -19.224520 -17.586349 -39.356250
RightArm 19.083996 15.771658 39.812666
RightForeArm -19.289227 -0.000000 6.639815
RightHand 16.536938 -0.000000 6.474032
RightHandThumb1 -24.326973 -0.000000 -32.862282
LeftUpLeg 9.116787 0.993132 -0.517093
LeftLeg 1.720556 -0.000000 -0.000000
LeftFoot -17.520369 13.563133 -23.392966
LeftToeBase 17.044257 -0.000000 -0.000000
RightUpLeg 7.920336 -8.501888 1.090116
RightLeg 0.521578 -0.000000 -0.000000
RightFoot -12.188261 -14.101645 13.452981
RightToeBase 10.962602 -0.000000 -0.000000
6
root 3.929846 32.355125 -0.018556 -3.098867 1.054183 0.587293
Spine 3.018214 4.029623 0.172464
Head 1.524249 -5.548999 2.026818
LeftShoulder -14.122568 -5.442868 41.965099
LeftArm 17.011850 -11.451065 -42.622821
LeftForeArm 21.080242 -0.000000 -10.022727
LeftHand 9.211171 0.000000 -5.523274
LeftHandThumb1 -26.253704 0.000000 33.147579
RightShoulder -19.227632 -17.612724 -39.347832
RightArm 19.100434 15.746683 39.789174
RightForeArm -19.292962 -0.000000 6.650617
RightHand 16.543851 -0.000000 6.547059
RightHandThumb1 -24.326973 -0.000000 -32.862282
LeftUpLeg 9.113886 0.987136 -0.512473
LeftLeg 1.743282 -0.000000 -0.000000
LeftFoot -17.475468 13.563266 -23.281253
LeftToeBase 16.823506 -0.000000 -0.000000
RightUpLeg 7.924172 -8.528733 1.093368
RightLeg 0.528266 -0.000000 -0.000000
RightFoot -12.181291 -14.097457 13.440734
RightToeBase 10.922304 -0.000000 -0.000000
